#tb 0: 1/1000
0,          0,          0,        0,    70512, 33aa4af6153570518c59960a0c959053
0,         33,         33,        0,    70512, 024fa27dee80ad199528052aaa8d42c7
0,         66,         66,        0,    70512, b949ef118c7e7e62a8b88e2308219ef9
0,        100,        100,        0,    70512, 3061ee13696ced5e10a646fdd5ca6c34
0,        133,        133,        0,    70512, c4984bd53dcb7b9e2570f2965d077b2f
0,        166,        166,        0,    70512, d564c35c5caadcfd9f80377fa414af72
0,        200,        200,        0,    70512, 9b7d7b10ee2f3eb7a9ffddcebff45b97
0,        233,        233,        0,    70512, a0ede7085b04cbb3519d56b2e4347d14
0,        266,        266,        0,    70512, 63d7af745f9e6a34b618db28fe878ffd
0,        300,        300,        0,    70512, 85077809087e7bdfb9215bfcd1f1bbc0
